/* XPM */
static char *fa3cdb3e7b3a4443b37a9a25a69bd38eftmDqzke47O5vKj2[] = {
/* columns rows colors chars-per-pixel */
"32 32 172 2 ",
"   c None",
".  c #03071C",
"X  c #340002",
"o  c #2F2F04",
"O  c #3C3B00",
"+  c #040B29",
"@  c #0A1537",
"#  c #040D35",
"$  c #4A0002",
"%  c #560003",
"&  c #5D0001",
"*  c #640002",
"=  c #6C0002",
"-  c #740002",
";  c #4E4B00",
":  c #5A5800",
">  c #656300",
",  c #6D6B00",
"<  c #736F00",
"1  c #777700",
"2  c #000441",
"3  c #0A1848",
"4  c #081757",
"5  c #07196B",
"6  c #0F226C",
"7  c #0E2166",
"8  c #11256B",
"9  c #102467",
"0  c #0C227E",
"q  c #152C75",
"w  c #1A2F79",
"e  c #152D7A",
"r  c #1B327C",
"t  c #860005",
"y  c #940003",
"u  c #9B0004",
"i  c #9B0009",
"p  c #AE0005",
"a  c #A4000A",
"s  c #AD000D",
"d  c #B3000C",
"f  c #BE000F",
"g  c #AD0013",
"h  c #A30A1C",
"j  c #B50016",
"k  c #B50019",
"l  c #BA001C",
"z  c #BB0017",
"x  c #BD0021",
"c  c #A21628",
"v  c #CC0016",
"b  c #C2001E",
"n  c #C20025",
"m  c #C7002C",
"M  c #CA002D",
"N  c #CE0032",
"B  c #D30036",
"V  c #D4003C",
"C  c #DA003C",
"Z  c #E0003D",
"A  c #8C4401",
"S  c #AE4D02",
"D  c #BC5004",
"F  c #807F00",
"G  c #B65F24",
"H  c #D25A15",
"J  c #C15809",
"K  c #E0661B",
"L  c #D34F3E",
"P  c #DC6221",
"I  c #E56626",
"U  c #D70446",
"Y  c #AD545B",
"T  c #B15D7C",
"R  c #CA4946",
"E  c #858200",
"W  c #9E9D00",
"Q  c #888A1B",
"!  c #A29F00",
"~  c #BAB700",
"^  c #929722",
"/  c #9EA430",
"(  c #AEB738",
")  c #BFBE36",
"_  c #C2BD00",
"`  c #CCC800",
"'  c #D2CE00",
"]  c #D5D200",
"[  c #D9D500",
"{  c #DDDA00",
"}  c #D7D50E",
"|  c #D1CE15",
" . c #D7D717",
".. c #E1DE00",
"X. c #E1DF09",
"o. c #E0DF13",
"O. c #DCE417",
"+. c #E6E300",
"@. c #E9E600",
"#. c #EDEB00",
"$. c #E7EC00",
"%. c #F0EE00",
"&. c #ECF400",
"*. c #F4F200",
"=. c #F9F600",
"-. c #FDFD00",
";. c #F2FC00",
":. c #E3E216",
">. c #CECD2E",
",. c #D8D821",
"<. c #CCCC3A",
"1. c #CAC93A",
"2. c #C9D234",
"3. c #BEBC4D",
"4. c #BFBF5A",
"5. c #BEBE6C",
"6. c #BDBD73",
"7. c #B4BE7A",
"8. c #A3A579",
"9. c #C1BF73",
"0. c #BCC843",
"q. c #C7C751",
"w. c #C4D344",
"e. c #C0C06D",
"r. c #1E3A8C",
"t. c #1E3788",
"y. c #223A86",
"u. c #203F92",
"i. c #26418C",
"p. c #3F5389",
"a. c #294697",
"s. c #32519C",
"d. c #274CA9",
"f. c #2D52A6",
"g. c #395DAC",
"h. c #3456A6",
"j. c #375FB6",
"k. c #3D62AC",
"l. c #4A5F96",
"z. c #50689E",
"x. c #4065AF",
"c. c #5874A7",
"v. c #436AB4",
"b. c #4A75BB",
"n. c #4B75BB",
"m. c #4A7BC9",
"M. c #B16B84",
"N. c #5B86B9",
"B. c #678BB3",
"V. c #6B8FB8",
"C. c #6588B3",
"Z. c #6E92BA",
"A. c #5B8ECE",
"S. c #5385C7",
"D. c #928F93",
"F. c #B8B885",
"G. c #B9B895",
"H. c #B89CA6",
"J. c #B1B0AC",
"K. c #AFAFBC",
"L. c #BEAFB4",
"P. c #BABAB8",
"I. c #B3A7A9",
"U. c #B4C1A8",
"Y. c #C0C084",
"T. c #C7C797",
"R. c #CACAB9",
"E. c #BCCBC2",
"W. c #C4C4C6",
"Q. c #CACACA",
"!. c #C9C9C4",
"~. c #CDCED1",
/* pixels */
"                                                                ",
"                                                                ",
"                            , F E 1                             ",
"                      W ' @.#.%.*.#.#..._ 1                     ",
"                  e ( *.@.#.@.@.@.@.$.+.+.&.D %                 ",
"                u.d.( %.#.#.#.#.#.#.#.#.@.&.H v t               ",
"            @ i.f.j.0.*.#.*.%.*.*.*.*.%.#.;.H n v i             ",
"            r.f.j.m.w.=.*.=.=.=.=.=.=.=.*.;.P m n b t           ",
"          q f.j.b.N.8.9.6.6.6.6.6.5.5.>.%.-.P B n b v %         ",
"        3 r.s.k.S.B.                    G.O.I C M n z a         ",
"        e a.s.k.S.V.                      U.L Z B n b d *       ",
"      @ r.h.k.n.S.Z.      T.e.e.e.F.Q.      T Z B n n z y       ",
"      4 a.g.b.n.A.Z.      2.-.-.-.-.,.!.    H.U V M n k a X     ",
"      8 a.g.v.n.A.Z.      <.-.-.-.-.-.Y.    L.U C N n l s %     ",
"      8 a.g.v.n.A.Z.      <.-.-.-.-.*.G.    I.U C N n l s =     ",
"      8 r.j.x.n.A.Z.      q.:.:.:.,.9.      M.Z C N n l s -     ",
"      8 y.s.x.v.S.V.        !.Q.Q.        E.R Z B B n k d -     ",
"      9 r i.k.x.m.B.                    P.2.I U B M x k d =     ",
"      4 r i.s.k.b.c.        Q.~.      R. .-.I V M m l g p %     ",
"      3 w y.s.h.b.c.      q.o. .G.      1.-.P B M n k s p X     ",
"      + 8 r i.s.g.c.      <.-.-. .W.    P.O.K m x x g p y       ",
"        4 q y.a.h.z.      1.=.*.=.3.      7.H n x k g p &       ",
"        # 5 q y.i.l.      w.*.%.*.#.F.      Y z k g a y         ",
"          4 8 w t.l.J.Q.K.) *.%.#.*.,.I.Q.~.D.c g i u $         ",
"          . 4 8 w t./ } | X.#.#.@.$.$.} |  .G h i u *           ",
"            + 4 5 0 / #.@...@...+.+.+.+.+.#.D u u =             ",
"              + 4 5 ^ ..............{ { { { S t &               ",
"                  2 Q [ ' ' ] ] [ ] ] ' ] ] A X                 ",
"                    o E ~ ` ' ' ' ] ` _ ! >                     ",
"                          O : < < > ;                           ",
"                                                                ",
"                                                                "
};
