/* XPM */
static char *_a188d4f73464816bace95ca5d2e6cbe6S4iDLAwJTLV1UFM[] = {
/* columns rows colors chars-per-pixel */
"64 64 227 2 ",
"   c None",
".  c #180004",
"X  c #181700",
"o  c #050A1C",
"O  c #030719",
"+  c #05070F",
"@  c #280003",
"#  c #3C0004",
"$  c #360004",
"%  c #2E2D00",
"&  c #070D25",
"*  c #050D36",
"=  c #091539",
"-  c #0A1129",
";  c #460003",
":  c #4B0003",
">  c #590003",
",  c #670003",
"<  c #7B0002",
"1  c #750001",
"2  c #5A5800",
"3  c #4B4A00",
"4  c #797700",
"5  c #696700",
"6  c #6C4301",
"7  c #020D4B",
"8  c #09174A",
"9  c #020F53",
"0  c #06165A",
"q  c #091A5C",
"w  c #061654",
"e  c #132558",
"r  c #11224D",
"t  c #0B1C63",
"y  c #081967",
"u  c #0D2166",
"i  c #0F236A",
"p  c #12256C",
"a  c #13296C",
"s  c #152B74",
"d  c #162D78",
"f  c #1B337C",
"g  c #17317A",
"h  c #0F2870",
"j  c #253B73",
"k  c #243A5F",
"l  c #2B4279",
"z  c #5B6B74",
"x  c #706E6F",
"c  c #7F444D",
"v  c #840001",
"b  c #8C0001",
"n  c #940002",
"m  c #9C0005",
"M  c #9C0009",
"N  c #960009",
"B  c #A50003",
"V  c #AA0005",
"C  c #A4000B",
"Z  c #AB000F",
"A  c #B1000C",
"S  c #B60007",
"D  c #AC0012",
"F  c #A60010",
"G  c #B30014",
"H  c #B5001A",
"J  c #BB001D",
"K  c #B90217",
"L  c #BE0022",
"P  c #BD122D",
"I  c #C30015",
"U  c #C2001C",
"Y  c #C3000C",
"T  c #C30025",
"R  c #C50029",
"E  c #CA002D",
"W  c #CD0031",
"Q  c #D20035",
"!  c #D5003A",
"~  c #D9003D",
"^  c #E1003E",
"/  c #A35B00",
"(  c #BA6903",
")  c #955F04",
"_  c #CF7A08",
"`  c #B93E64",
"'  c #A03545",
"]  c #DC0042",
"[  c #D90044",
"{  c #DA1B56",
"}  c #E20044",
"|  c #E80449",
" . c #E21255",
".. c #9F5A70",
"X. c #8B717A",
"o. c #A66668",
"O. c #985455",
"+. c #8B8900",
"@. c #9C9901",
"#. c #A39E00",
"$. c #A9A601",
"%. c #B9B603",
"&. c #B2AD00",
"*. c #B9B83A",
"=. c #D98614",
"-. c #E5931B",
";. c #E9971F",
":. c #E89518",
">. c #C3BE00",
",. c #E8952C",
"<. c #C5C200",
"1. c #CDCA00",
"2. c #C9C705",
"3. c #D2CE00",
"4. c #D5D100",
"5. c #D9D600",
"6. c #DDDA00",
"7. c #D5D50D",
"8. c #D4D50E",
"9. c #E1DE00",
"0. c #DBE100",
"q. c #E5E200",
"w. c #E9E600",
"e. c #ECEB00",
"r. c #E3ED00",
"t. c #F1EE00",
"y. c #ECF700",
"u. c #F4F200",
"i. c #F5FF00",
"p. c #FDFC02",
"a. c #FAF805",
"s. c #EEED1C",
"d. c #E7E61A",
"f. c #F2F119",
"g. c #F0EF1A",
"h. c #DDDC2A",
"j. c #CECD36",
"k. c #D7D634",
"l. c #D9D937",
"z. c #E0DF26",
"x. c #DDE62B",
"c. c #E6E722",
"v. c #E8E733",
"b. c #B6B64C",
"n. c #ABAA54",
"m. c #B4B450",
"M. c #BABA55",
"N. c #ACAB4D",
"B. c #878778",
"V. c #92966B",
"C. c #A3A268",
"Z. c #9D925E",
"A. c #C8C745",
"S. c #1D3682",
"D. c #1C3888",
"F. c #19368C",
"G. c #223B85",
"H. c #243E89",
"J. c #203783",
"K. c #243F91",
"L. c #28438E",
"P. c #25418C",
"I. c #2A4693",
"U. c #2C4A96",
"Y. c #2C4C9B",
"T. c #254598",
"R. c #314E9A",
"E. c #2F519E",
"W. c #33529D",
"Q. c #395B9A",
"!. c #35508A",
"~. c #2A4BA5",
"^. c #264AA7",
"/. c #2E51A7",
"(. c #3354A2",
"). c #395AA5",
"_. c #355AAD",
"`. c #3B5EAB",
"'. c #3457A7",
"]. c #3157B0",
"[. c #3C61AD",
"{. c #3D63B3",
"}. c #3E68B7",
"|. c #1E419C",
" X c #506699",
".X c #4165AE",
"XX c #446CB4",
"oX c #4369B3",
"OX c #4B75BA",
"+X c #4973B9",
"@X c #507EBF",
"#X c #5973A5",
"$X c #617BA9",
"%X c #646C85",
"&X c #517DC1",
"*X c #4A77C1",
"=X c #897A80",
"-X c #698DB6",
";X c #7496B9",
":X c #7192B6",
">X c #698AB2",
",X c #6482A4",
"<X c #5483C3",
"1X c #5C8DC9",
"2X c #5889C8",
"3X c #5C91CD",
"4X c #588CCC",
"5X c #6293CC",
"6X c #649AD5",
"7X c #6196D3",
"8X c #8E8E84",
"9X c #878787",
"0X c #939388",
"qX c #8A8A95",
"wX c #989693",
"eX c #91919B",
"rX c #979996",
"tX c #8F908E",
"yX c #ABAB97",
"uX c #9C9CAB",
"iX c #9798A4",
"pX c #95A1A2",
"aX c #A6A6A7",
"sX c #A5A5B2",
"dX c #ACACB8",
"fX c #AEB6B6",
"gX c #CBCBCA",
/* pixels */
"                                                                                                                                ",
"                                                    2 +.#.<.1.4.4.4.2.<.$.+.5                                                   ",
"                                            3 @.<.6.e.e.w.9.9.9.6.6.q.q.w.r.t.r.1.#.2                                           ",
"                                        4 2.e.w.6.5.5.6.9.9.q.q.w.q.q.6.9.6.5.6.6.e.e.1.+.                                      ",
"                                    k 2.r.6.5.5.6.q.w.w.e.w.w.w.w.w.q.q.q.q.q.q.6.5.5.q.w.q.)                                   ",
"                                r |.).8.6.6.6.q.r.e.e.e.e.w.r.w.w.w.w.w.w.q.q.w.w.q.6.6.6.r.=.A ,                               ",
"                              f ^.|.Q.8.q.9.r.e.w.w.w.e.w.e.e.e.r.w.e.e.e.w.w.w.w.w.w.6.6.r._ I Y C ;                           ",
"                          = D.|.P.T.Q.8.e.e.e.e.e.t.e.e.e.e.e.e.e.e.e.e.e.e.e.e.w.w.r.w.q.r._ K I I S >                         ",
"                        e |.D.P./.~.Q.8.e.r.e.e.t.e.t.t.u.e.u.e.t.e.t.t.e.e.e.e.e.e.e.e.e.r.=.J U I I Y <                       ",
"                      e D.D.T._.E.].<Xr.t.t.e.e.e.e.e.e.e.t.t.t.t.u.t.t.u.e.u.e.e.e.e.e.e.y.=.L U U I I I v                     ",
"                    e D.f Y._.E.[.}.<Xd.t.e.t.e.t.e.t.t.u.u.u.u.u.u.u.u.u.t.u.u.e.e.e.e.e.y.=.L T U U I I K b                   ",
"                  r F.S.Y.].E.{.}.OX-Xd.t.e.t.t.t.t.t.t.u.t.u.u.u.u.u.u.u.u.u.u.u.u.u.e.e.y.-.E R T U I I K S <                 ",
"                = D.g T.].E._.}.}.<X1Xs.t.t.t.t.u.u.u.u.u.u.u.u.u.u.u.a.u.u.u.u.u.u.u.u.e.i.-.W E U U U I I K S ,               ",
"              - g g T.].E._.}.}.<X4X5Xf.p.a.u.a.i.p.p.i.p.p.p.p.p.p.p.p.p.p.a.u.u.u.u.u.e.i.-.Q Q R R R U I K A C ;             ",
"              h g D.]./.Q.}.}.<X1X-X%Xn.m.m.m.m.m.m.m.m.m.m.m.m.m.b.m.b.A.j.c.f.p.u.u.u.u.i.-.! Q E R U U J K K A m @           ",
"            r g g /.'.E.}.}.}.<X5X>Xx iXsXsXsXsXsXsXsXsXsXsXsXsXsXsXsXuXiXqX9XV.m.c.p.u.u.i.-.[ ~ Q E E T T I K G V <           ",
"          o s g T.].U.[.}.+X<X<X2X,XrX                                          uX9Xn.g.p.i.,.[ ~ Q E E T U U K G Z B ;         ",
"          e g f P.I.U.[.}.+X<X1X3X:XrX                                              uXB.h.i.;.[ ~ Q Q E R T T K G A C v         ",
"        & h g G.D.L.U.W.[.XX<X1X3X:X0X                                                  %Xc.;.| ^ Q Q E R R T J K G C m :       ",
"        r h D./.U.I.W.).[.}.<X2X3X:XrX                                                    V.,.| ^ ^ ~ E E R T L J G Z B v       ",
"        u h T./.Y._.).`..XXX@X1X3X:XrX                                                    pXo.| ] ~ ! W E E T U J G D C n #     ",
"      = h g ^.Y.(.}.XXXX.XOX2X1X7X;XwX            gXaX0X8X8X8XtX8X0XtXeXsX                  =X{ } ] ~ Q E E R T J K G C m ,     ",
"      r s D./.T.`.oXXX+XOX<X2X1X7X;XrX            yXv.f.s.s.g.s.s.f.c.h.M.0XdX              rX` } ] ] ! Q E R T T K G Z M v     ",
"    o u s |.^.Y.[..XXXOXOX<X1X5X7X;XrX            0Xf.p.p.p.p.p.p.p.p.p.p.c.C.fX            fX..| } ] ! Q E R T L K G D C n ;   ",
"    = u d ^.K.(.{.oXoX+XOX<X1X5X6X;XwX            8Xs.p.p.a.p.p.p.p.a.p.a.p.c.wX              X. .] ] ! W W E L T J G G C n >   ",
"    = u f ^.T._.{.oXoX+X@X<X1X5X6X;XwX            8Xg.p.a.p.p.a.p.p.p.p.p.p.p.C.              =X .} ] ! Q W E R L J H D Z n 1   ",
"    8 h S.^.U._.[.oXoX+XOX&X1X5X6X;XwX            8Xg.p.a.p.p.p.p.p.p.a.p.p.p.M.dX            =X .} ] ~ Q W E T L J H G Z M v   ",
"    w a S.T.~.`.[.oXXX+XOX&X1X5X6X;XwX            8Xg.p.p.a.p.p.p.p.p.p.p.p.p.M.dX            X. .} ] ~ ! W E R T L K G Z m v @ ",
"  o q a g P./._.{.oXXX+X+X@X1X5X6X;XwX            8Xg.p.p.p.p.p.p.a.p.p.p.p.p.C.              X. .} ] ~ ! W W R L J J G D m b # ",
"  & q a f D./._.`.{.XX+X+X@X2X5X6X;XwX            8Xg.p.p.p.p.p.p.p.a.p.p.p.l.iX            fX..} } ] ~ Q Q E R L L H G Z C b ; ",
"  o t a g G./._.`..XoXXX+X@X2X5X6X;XwX            wXf.p.p.p.p.p.p.p.p.p.a.k.tX              pX` ^ } ~ ~ Q W E R T J K G D C n ; ",
"  o q s g f Y._.`.{.oXXX+XOX<X5X6X;XwX            aXA.v.l.k.l.k.l.l.j.A.C.eX                X.{ ^ ] ~ ~ Q W E R T H K G Z B n ; ",
"  O q p f f H.).`..X.XoX+X&X&X6X7X;XwX              dXiXqXeXeXeXiXeXiXuX                  pXo.| ] ~ ~ ~ Q W E T L H H G A V n ; ",
"  o q p s J.G.R.`.`..X.XoX&X&X&X5X;XwX                                                    V.,.} ] ~ ! ! Q W R R L J G G A C b ; ",
"  & w p d f H.H.~.`..X.X.XOX&X&X3X:XwX                                                  %Xc.;.] ~ ! Q ! Q W E T L H H G G B b ; ",
"  o w p s f H.H.K.).`.`.oX#X*X&X4X-XwX                                              sXB.l.p.;.| ~ ! Q Q W E R L L H D G A V b # ",
"    8 p s f J.H.K.R.).)..XoXOX&X4X-XwX                                            qXZ.c.p.i.;.[ ~ ! Q W W E R L H H D G Z B v @ ",
"    8 t p s J.J.R.R.).)..X.X#X*X&X-XwX                                          yXh.p.i.u.i.;.[ ! Q W W W E T L J G D G S B < . ",
"    * q p s j G.H.R.R.)..X.XoXOX&X$XwX              aXeXqXtXqXaX                yXf.p.u.u.i.;.! Q Q E E E R T L H D Z A S B ,   ",
"    - w p s f G.H.K.R.W.)..XoXOX*X>XwX            aXl.h.z.z.z.h.0X              sXC.p.u.a.i.-.! Q W E E E R U J H D Z A V m >   ",
"    o 8 t p d J.H.H.R.W.).)..XXX*X$XwX            0Xf.a.a.p.a.p.j.qX              qXA.p.u.i.-.Q W W E R R T L H H F Z S V b $   ",
"      7 t p s f J.K.K.W.W.).)..XoX$XwX            8Xs.a.u.u.a.u.p.n.uX              9Xc.a.i.-.Q W E R L R L L H D F C V V < .   ",
"      - w u p d j G.H.R.W.).)..XoX#XwX            8Xd.a.a.u.a.a.a.s.B.              sXZ.a.i.-.W E R R L L L H H D C F S B >     ",
"      o 7 t p s f J.H.K.R.W.).).{.#XwX            8Xd.u.u.u.u.u.u.p.j.qX              qXb.p.=.E E R L L L H H D D C C S b #     ",
"        = 0 u p s J.J.H.U.R.W.).).#XwX            8Xd.u.t.t.u.a.u.u.p.n.uX              9Xx.=.E L R L L H H H D C m V B ,       ",
"        & 9 t p p f f G.H.K.R.(.).#XrX            8Xd.a.t.u.u.t.u.u.u.s.B.              dXC.-.U L L L H H H D C M m S n ;       ",
"          7 0 t p s f J.H.K.U.R.W. XyX            0Xd.u.a.t.t.t.u.u.u.p.j.qX              rXo.R L L H H H D C C m m B , .       ",
"          o 7 q t p s j J.H.K.I.R. XrX            8Xd.t.u.t.t.t.t.t.t.t.p.n.uX              9X' L H H H D D C C n B b #         ",
"            * w q p p d f J.H.K.K. XwX            9Xd.e.t.t.t.t.e.u.t.t.u.g.B.              fXx P D H F F C C M n n >           ",
"            + 7 w t p p s f J.H.F. Xx uXdXsXsXdXeXx z.t.e.e.e.t.t.e.e.e.e.u.k.%XuXsXsXsXsXsXuXz c H D F C C m n n 1 @           ",
"              o 7 0 t p p f f J.J.!.%Xn.m.N.N.N.N.N.q.e.e.e.e.e.e.e.e.w.e.e.t.*.N.N.N.N.m.m.Z.' c P D F C m m b < #             ",
"                & 9 0 t p a d f J.J.H.7.e.e.e.e.e.t.w.w.w.w.e.e.w.e.e.w.e.w.w.t.t.e.e.e.w.y._ H D F F N m n b < >               ",
"                  * 9 0 t u p s S.F.j 8.w.9.9.9.9.9.w.w.w.9.e.9.w.e.w.w.w.w.9.w.w.q.q.q.9.r._ F C C N n n n v , .               ",
"                    * w 0 t p p s S.j 2.9.9.9.9.9.9.9.w.9.e.w.e.9.w.w.9.w.q.9.9.q.9.9.9.6.r._ M M m b n n v , .                 ",
"                      * 7 0 q t p p j 2.9.9.9.9.9.9.9.9.9.9.w.9.w.9.9.9.9.9.9.9.9.9.9.9.6.r.( N M n b b v > .                   ",
"                        * 7 0 q u y a >.9.4.5.9.9.9.9.9.9.9.9.9.9.w.9.9.9.6.9.5.6.9.6.5.6.0.( m n v v v > .                     ",
"                          - 7 9 0 y e %.5.4.3.4.5.9.9.9.9.9.9.9.9.9.9.9.9.9.4.5.5.5.4.4.4.6.( v v < 1 ;                         ",
"                            o * 9 0 q %.1.1.3.3.4.4.4.5.5.5.5.9.5.9.9.5.4.5.4.4.3.3.4.4.3.4./ v < , $                           ",
"                                - 7 w &.<.<.2.1.1.1.3.3.4.4.4.4.4.4.4.4.4.4.4.1.1.3.1.<.>.2./ , ; .                             ",
"                                  O - @.>.>.>.>.>.>.2.1.1.3.3.4.4.3.4.3.3.3.3.>.<.<.>.%.%.%.6 .                                 ",
"                                      % 5 @.%.<.>.>.>.>.>.>.2.2.2.2.2.>.>.>.>.>.>.>.>.$.4 %                                     ",
"                                          X 3 ) #.>.>.>.>.>.>.>.>.>.>.>.>.>.>.>.$.+.3 %                                         ",
"                                                X % 2 5 +.#.&.&.&.&.$.#.+.4 2 3 X                                               ",
"                                                            X X X X X X                                                         "
};
