/* XPM */
static char *_15b395c7d774bdac8aed55609082af0aK5g3SB3WmnwSWn5[] = {
/* columns rows colors chars-per-pixel */
"16 16 136 2 ",
"   c None",
".  c #2C0001",
"X  c #320000",
"o  c #050D2D",
"O  c #07102D",
"+  c #050F37",
"@  c #0B173B",
"#  c #08143E",
"$  c #0A163F",
"%  c #13193F",
"&  c #600005",
"*  c #6D0002",
"=  c #434206",
"-  c #787500",
";  c #797800",
":  c #010C4A",
">  c #0B1E58",
",  c #1C2B4A",
"<  c #11256F",
"1  c #10287C",
"2  c #20347B",
"3  c #8D000A",
"4  c #960004",
"5  c #940007",
"6  c #990005",
"7  c #9D000C",
"8  c #9E000F",
"9  c #A0000C",
"0  c #B3000E",
"q  c #B20014",
"w  c #BA0012",
"e  c #BB001D",
"r  c #BD0020",
"t  c #BF0022",
"y  c #CA001B",
"u  c #C30022",
"i  c #C50020",
"p  c #CC002B",
"a  c #CA002E",
"s  c #D30026",
"d  c #D20030",
"f  c #D20031",
"g  c #D40132",
"h  c #9B4900",
"j  c #A14C08",
"k  c #BB4F1C",
"l  c #DD5111",
"z  c #E45315",
"x  c #D14A25",
"c  c #D74E25",
"v  c #B5515D",
"b  c #D7484A",
"n  c #D54963",
"m  c #979300",
"M  c #959400",
"N  c #A7A400",
"B  c #A8A600",
"V  c #AFAC00",
"C  c #B1AF00",
"Z  c #B5B100",
"A  c #A3A61D",
"S  c #AAAD3F",
"D  c #B7C031",
"F  c #DEDD01",
"G  c #E2DF00",
"H  c #E1E000",
"J  c #E3E200",
"K  c #E4E000",
"L  c #E6E401",
"P  c #E9E800",
"I  c #EAEA00",
"U  c #EDE900",
"Y  c #ECEC00",
"T  c #E1E00B",
"R  c #EDEB08",
"E  c #EFEF0B",
"W  c #F6F300",
"Q  c #F7F500",
"!  c #F0F107",
"~  c #F8F200",
"^  c #F0FE00",
"/  c #F9F900",
"(  c #FAFB00",
")  c yellow",
"_  c #F1F10B",
"`  c #FCF909",
"'  c #ECE716",
"]  c #E4E31E",
"[  c #F0EF1B",
"{  c #DCE524",
"}  c #DDE836",
"|  c #E1ED3E",
" . c #C5D140",
".. c #DCDD64",
"X. c #DEDD66",
"o. c #E5E56E",
"O. c #1B3381",
"+. c #1E3A88",
"@. c #223E8F",
"#. c #254090",
"$. c #2E509E",
"%. c #2A4BA3",
"&. c #2C4CA1",
"*. c #294EAA",
"=. c #375FAE",
"-. c #3961AD",
";. c #3E66B0",
":. c #415895",
">. c #5570AD",
",. c #426DB8",
"<. c #426EB9",
"1. c #5C7CB7",
"2. c #DF6293",
"3. c #E36A9B",
"4. c #5B83BD",
"5. c #6489BE",
"6. c #678CBF",
"7. c #6C93C4",
"8. c #6C94C4",
"9. c #DAD987",
"0. c #CBD399",
"q. c #D8D795",
"w. c #DCDB99",
"e. c #E6E888",
"r. c #F4F28F",
"t. c #EAEA9F",
"y. c #E7F29A",
"u. c #DFEDBA",
"i. c #EAEAA0",
"p. c #ECEAB0",
"a. c #F0EDB9",
"s. c #F3F1B7",
"d. c #C3C5D3",
"f. c #E3E3CF",
"g. c #E3E4CC",
"h. c #EBEACA",
/* pixels */
"                                ",
"            ; B C M             ",
"        , D ) Q W / / j         ",
"      > ;. .` E _ ! ^ z q       ",
"    $ *.4.0.r.t.i.e.| c s 8     ",
"    +.-.6.    f.g.    n p y &   ",
"  O %.,.8.  p.H Y ..  3.f y 3   ",
"  $ &.,.7.  a.] [ o.  2.f u 8   ",
"  $ #.-.5.      h.  u.b f t 9   ",
"  o O.$.1.    q.    } l a e 5   ",
"    < @.>.  s.F X.  y.x e w *   ",
"    + 1 :.d.w.P E 9.  v 0 5     ",
"      : 2 S ' L U T { k 6 X     ",
"        % A ~ G J J U h .       ",
"          = m C Z N -           ",
"                                "
};
